<svg xmlns="http://www.w3.org/2000/svg" width="800" height="183" viewBox="0 0 800 183" font-family="system-ui,Segoe UI,Helvetica,sans-serif">
  <rect width="800" height="183" fill="#0d1117"/>
  <text x="24" y="36" font-size="19" font-weight="800" fill="#e6edf3">attack-coverage</text>
  <text x="230" y="36" font-size="13" fill="#7d8590">MITRE ATT&amp;CK detection coverage heatmap</text>
  <rect x="640" y="18" width="140" height="26" rx="13" fill="#161b22" stroke="#30363d"/>
  <text x="710" y="36" font-size="13" fill="#26a641" text-anchor="middle" font-weight="700">52.4% covered</text>
  <g transform="translate(20,58) scale(0.6168831168831169)"><rect width="1232" height="142" fill="#0d1117"/><text x="75.0" y="20" fill="#9aa4b2" font-size="10" text-anchor="middle">Initial Access</text><rect x="0" y="40" width="150" height="30" rx="4" fill="#0e4429"><title>T1566 Phishing: 1 detection(s)</title></rect><text x="6" y="59" fill="#c9d1d9" font-size="10">T1566 Phishing</text><rect x="0" y="74" width="150" height="30" rx="4" fill="#2d333b"><title>T1190 Exploit Public-Facing App: 0 detection(s)</title></rect><text x="6" y="93" fill="#c9d1d9" font-size="10">T1190 Exploit Public-F</text><rect x="0" y="108" width="150" height="30" rx="4" fill="#0e4429"><title>T1078 Valid Accounts: 1 detection(s)</title></rect><text x="6" y="127" fill="#c9d1d9" font-size="10">T1078 Valid Accounts</text><text x="229.0" y="20" fill="#9aa4b2" font-size="10" text-anchor="middle">Execution</text><rect x="154" y="40" width="150" height="30" rx="4" fill="#006d32"><title>T1059 Command &amp; Scripting Interpreter: 2 detection(s)</title></rect><text x="160" y="59" fill="#c9d1d9" font-size="10">T1059 Command &amp; Script</text><rect x="154" y="74" width="150" height="30" rx="4" fill="#0e4429"><title>T1204 User Execution: 1 detection(s)</title></rect><text x="160" y="93" fill="#c9d1d9" font-size="10">T1204 User Execution</text><rect x="154" y="108" width="150" height="30" rx="4" fill="#0e4429"><title>T1053 Scheduled Task/Job: 1 detection(s)</title></rect><text x="160" y="127" fill="#c9d1d9" font-size="10">T1053 Scheduled Task/J</text><text x="383.0" y="20" fill="#9aa4b2" font-size="10" text-anchor="middle">Persistence</text><rect x="308" y="40" width="150" height="30" rx="4" fill="#2d333b"><title>T1098 Account Manipulation: 0 detection(s)</title></rect><text x="314" y="59" fill="#c9d1d9" font-size="10">T1098 Account Manipula</text><rect x="308" y="74" width="150" height="30" rx="4" fill="#0e4429"><title>T1136 Create Account: 1 detection(s)</title></rect><text x="314" y="93" fill="#c9d1d9" font-size="10">T1136 Create Account</text><rect x="308" y="108" width="150" height="30" rx="4" fill="#2d333b"><title>T1547 Boot/Logon Autostart: 0 detection(s)</title></rect><text x="314" y="127" fill="#c9d1d9" font-size="10">T1547 Boot/Logon Autos</text><text x="537.0" y="20" fill="#9aa4b2" font-size="10" text-anchor="middle">Privilege Escalation</text><rect x="462" y="40" width="150" height="30" rx="4" fill="#2d333b"><title>T1068 Exploitation for Priv Esc: 0 detection(s)</title></rect><text x="468" y="59" fill="#c9d1d9" font-size="10">T1068 Exploitation for</text><rect x="462" y="74" width="150" height="30" rx="4" fill="#2d333b"><title>T1548 Abuse Elevation Control: 0 detection(s)</title></rect><text x="468" y="93" fill="#c9d1d9" font-size="10">T1548 Abuse Elevation </text><text x="691.0" y="20" fill="#9aa4b2" font-size="10" text-anchor="middle">Defense Evasion</text><rect x="616" y="40" width="150" height="30" rx="4" fill="#2d333b"><title>T1070 Indicator Removal: 0 detection(s)</title></rect><text x="622" y="59" fill="#c9d1d9" font-size="10">T1070 Indicator Remova</text><rect x="616" y="74" width="150" height="30" rx="4" fill="#2d333b"><title>T1027 Obfuscated Files: 0 detection(s)</title></rect><text x="622" y="93" fill="#c9d1d9" font-size="10">T1027 Obfuscated Files</text><rect x="616" y="108" width="150" height="30" rx="4" fill="#0e4429"><title>T1562 Impair Defenses: 1 detection(s)</title></rect><text x="622" y="127" fill="#c9d1d9" font-size="10">T1562 Impair Defenses</text><text x="845.0" y="20" fill="#9aa4b2" font-size="10" text-anchor="middle">Credential Access</text><rect x="770" y="40" width="150" height="30" rx="4" fill="#0e4429"><title>T1110 Brute Force: 1 detection(s)</title></rect><text x="776" y="59" fill="#c9d1d9" font-size="10">T1110 Brute Force</text><rect x="770" y="74" width="150" height="30" rx="4" fill="#0e4429"><title>T1003 OS Credential Dumping: 1 detection(s)</title></rect><text x="776" y="93" fill="#c9d1d9" font-size="10">T1003 OS Credential Du</text><rect x="770" y="108" width="150" height="30" rx="4" fill="#2d333b"><title>T1555 Credentials from Stores: 0 detection(s)</title></rect><text x="776" y="127" fill="#c9d1d9" font-size="10">T1555 Credentials from</text><text x="999.0" y="20" fill="#9aa4b2" font-size="10" text-anchor="middle">Lateral Movement</text><rect x="924" y="40" width="150" height="30" rx="4" fill="#0e4429"><title>T1021 Remote Services: 1 detection(s)</title></rect><text x="930" y="59" fill="#c9d1d9" font-size="10">T1021 Remote Services</text><rect x="924" y="74" width="150" height="30" rx="4" fill="#2d333b"><title>T1570 Lateral Tool Transfer: 0 detection(s)</title></rect><text x="930" y="93" fill="#c9d1d9" font-size="10">T1570 Lateral Tool Tra</text><text x="1153.0" y="20" fill="#9aa4b2" font-size="10" text-anchor="middle">Exfiltration</text><rect x="1078" y="40" width="150" height="30" rx="4" fill="#0e4429"><title>T1041 Exfil Over C2: 1 detection(s)</title></rect><text x="1084" y="59" fill="#c9d1d9" font-size="10">T1041 Exfil Over C2</text><rect x="1078" y="74" width="150" height="30" rx="4" fill="#2d333b"><title>T1567 Exfil to Cloud: 0 detection(s)</title></rect><text x="1084" y="93" fill="#c9d1d9" font-size="10">T1567 Exfil to Cloud</text></g>
  <text x="24" y="173" font-size="12" fill="#3fb950" font-family="SFMono-Regular,monospace">green = covered (darker→fewer detections) · grey = gap · ✓ 5 tests · collapses sub-techniques</text>
</svg>